<?xml version="1.0" encoding="UTF-8"?>
<svg id="Logo_Wordmarks" data-name="Logo/Wordmarks" xmlns="http://www.w3.org/2000/svg" viewBox="0 0 431.67 173.79">
  <defs>
    <style>
      .cls-1 {
        fill: #fc5130;
      }

      .cls-2 {
        fill: none;
      }

      .cls-3 {
        fill: #789bde;
      }

      .cls-4 {
        fill: #ccc;
      }
    </style>
  </defs>
  <g id="wordmark-d">
    <path class="cls-2" d="M126.96,83.37l10.06-40.45c.58-2.21.81-3.61.81-4.89,0-3.13-1.62-4.97-4.42-6.96l-11.28,45.58c-.23.81-.35,1.51-.35,2.21,0,2.91,1.86,4.54,4.77,4.54.13,0,.27-.03.41-.03Z"/>
    <path class="cls-2" d="M27.79,31.07l-11.28,45.58c-.23.81-.35,1.51-.35,2.21,0,2.91,1.86,4.54,4.77,4.54.13,0,.27-.03.41-.03l10.06-40.45c.58-2.21.81-3.61.81-4.89,0-3.13-1.62-4.97-4.42-6.96Z"/>
    <path class="cls-2" d="M207.15,83.4c.89,0,1.83-.14,2.82-.41-.79-1.55-1.19-3.33-1.19-5.29,0-1.16.12-2.56.46-3.84l10-40.24h-5.87l-10.65,43.04c-.23.81-.35,1.51-.35,2.21,0,2.91,1.86,4.54,4.77,4.54Z"/>
    <path class="cls-2" d="M277.87,37.57c0-3.61-1.63-6.05-4.88-6.05-8.72,0-17.56,14.07-19.89,27.68,15-1.4,24.77-9.54,24.77-21.63Z"/>
    <path class="cls-2" d="M217.19,96.91c-7.56,0-14.66,7.79-17.1,18.38l-2.91,11.17c-.7,2.68-.93,5-.93,7.1,0,7.21,3.96,10.93,9.3,10.93,11.75,0,20.12-19.66,20.12-34.89,0-7.56-2.56-12.68-8.49-12.68Z"/>
    <path class="cls-2" d="M388.76,111.42c-5.8,6.36-18.41,9.12-34.1,9.45-.23,1.86-.35,3.72-.35,5.47,0,11.17,6.05,16.05,14.42,16.05,4.08,0,7.62-1.04,10.89-3.12-.34-.97-.53-1.99-.53-3.04,0-4.89,3.95-7.68,8.72-7.68,2.56,0,5,.81,6.63,2.44-2.91.12-4.89,2.68-4.89,6.28,0,5.82,4.65,10,11.98,10s12.79-3.84,12.79-9.77c0-4.3-3.02-7.44-10.93-11.52-8.08-4.19-13.46-8.21-14.64-14.57Z"/>
    <path class="cls-2" d="M379.67,97.84c0-3.61-1.63-6.05-4.89-6.05-8.72,0-17.56,14.07-19.89,27.68,15-1.4,24.78-9.54,24.78-21.63Z"/>
    <path class="cls-2" d="M272.78,93.65c-11.63,0-20.47,21.52-20.47,36.29,0,7.91,2.79,12.33,8.49,12.33,7.1,0,13.49-8.61,16.17-18.61l3.26-12.21c.7-3.02,1.16-5.58,1.16-7.79,0-6.75-3.84-10-8.61-10Z"/>
    <path class="cls-2" d="M326.99,107.61c.81.47,2.09.81,3.02.81,4.77,0,7.44-4.19,7.44-9.19,0-4.42-2.09-7.33-6.4-7.33-10.47,0-20.24,18.26-20.24,33.73,0,11.75,5.93,16.87,13.84,16.87,5.96,0,10.48-2.22,14.79-6.92-1.07-2.77-1.65-5.9-1.65-9.36,0-4.59.95-9.12,2.67-13.33-1.51.64-3.2,1-5,1-3.84,0-7.91-1.98-8.49-6.28Z"/>
    <path class="cls-4" d="M417.48,105.87c1.4,1.63,3.72,2.56,6.16,2.56,4.42,0,8.03-2.79,8.03-7.33,0-6.86-8.03-11.4-18.96-11.4-8.91,0-16.76,3.78-20.96,9.47-1.73-5.69-8.11-9.47-17.19-9.47-11.02,0-20.62,4.9-27.25,12.29-.3-7.72-7.38-12.29-16.6-12.29-20.7,0-36.41,17.33-36.41,36.17,0,6.8,2.17,12.38,5.88,16.39-6.71,2.99-11.53.94-9.96-5.34l5.93-24.54c1.74-6.86,3.96-15.7,6.4-22.68-6.86,1.74-13.03,5.47-17.1,11.52-1.98-6.28-6.86-11.52-16.05-11.52-11.35,0-21.18,6.8-27.27,16.49-1.34-10.09-7.32-16.49-17.39-16.49s-17.8,7.68-22.33,16.05l3.61-14.89h-23.38v.23c3.02,2.09,4.77,3.95,4.77,7.21,0,1.28-.23,2.68-.81,4.89l-6.53,26.24c-.12-7.6-4.9-11.54-15.81-17.51-7.79-4.3-10.58-6.63-10.58-11.05,0-5.47,4.77-9.19,11.4-9.19s9.89,3.14,9.89,8.03c0,3.14-1.51,5.82-4.3,6.16,1.4,1.63,3.72,2.56,6.16,2.56,4.42,0,8.03-2.79,8.03-7.33,0-6.86-8.03-11.4-18.96-11.4-13.26,0-24.19,8.37-24.19,18.96,0,8.03,5.7,12.56,14.89,17.33,7.91,4.07,10.93,7.21,10.93,11.52,0,5.93-5.23,9.77-12.79,9.77s-11.98-4.19-11.98-10c0-3.61,1.98-6.16,4.88-6.28-1.63-1.63-4.07-2.44-6.63-2.44-4.77,0-8.72,2.79-8.72,7.68,0,7.44,8.72,13.03,21.75,13.03,10.73,0,20.13-4.73,24.07-11.91l-9.07,36.45h16.4l9.3-37.22c.93,6.98,7.1,12.68,16.05,12.68,10.74,0,19.61-6.32,25.2-15.42,1.62,9.42,7.9,15.3,17.25,15.3,10.47,0,16.87-7.09,21.52-15.47-.58,1.51-.81,3.14-.81,4.19-.23,6.98,4.07,11.4,11.52,11.4,5.28,0,10.45-1.96,15.1-6.61,4.15,4.24,10.08,6.61,17,6.61,9.44,0,17.32-4.26,22.52-12.24,3.63,7.73,11.35,12.24,21.22,12.24,7.89,0,14.56-2.63,19.61-7.52,3.19,4.52,10.4,7.52,19.94,7.52,14.19,0,26.05-8.26,26.05-19.54,0-7.79-4.77-11.75-15.82-17.8-7.79-4.3-10.58-6.63-10.58-11.05,0-5.47,4.77-9.19,11.4-9.19s9.89,3.14,9.89,8.03c0,3.14-1.51,5.82-4.3,6.16ZM205.56,144.48c-5.35,0-9.3-3.72-9.3-10.93,0-2.09.23-4.42.93-7.1l2.91-11.17c2.44-10.58,9.54-18.38,17.1-18.38,5.93,0,8.49,5.12,8.49,12.68,0,15.24-8.37,34.89-20.12,34.89ZM280.23,111.45l-3.26,12.21c-2.67,10-9.07,18.61-16.17,18.61-5.7,0-8.49-4.42-8.49-12.33,0-14.77,8.84-36.29,20.47-36.29,4.77,0,8.61,3.26,8.61,10,0,2.21-.47,4.77-1.16,7.79ZM337.8,126.22c0,3.46.58,6.59,1.65,9.36-4.31,4.71-8.83,6.92-14.79,6.92-7.91,0-13.84-5.12-13.84-16.87,0-15.47,9.77-33.73,20.24-33.73,4.3,0,6.4,2.91,6.4,7.33,0,5-2.67,9.19-7.44,9.19-.93,0-2.21-.35-3.02-.81.58,4.3,4.65,6.28,8.49,6.28,1.8,0,3.48-.36,5-1-1.72,4.22-2.67,8.74-2.67,13.33ZM374.79,91.79c3.26,0,4.89,2.44,4.89,6.05,0,12.1-9.77,20.24-24.78,21.63,2.33-13.61,11.17-27.68,19.89-27.68ZM403.4,125.99c7.91,4.07,10.93,7.21,10.93,11.52,0,5.93-5.23,9.77-12.79,9.77s-11.98-4.19-11.98-10c0-3.61,1.98-6.16,4.89-6.28-1.63-1.63-4.07-2.44-6.63-2.44-4.77,0-8.72,2.79-8.72,7.68,0,1.06.19,2.07.53,3.04-3.27,2.08-6.81,3.12-10.89,3.12-8.37,0-14.42-4.89-14.42-16.05,0-1.74.12-3.61.35-5.47,15.69-.34,28.29-3.09,34.1-9.45,1.18,6.36,6.56,10.38,14.64,14.57Z"/>
    <path class="cls-4" d="M22.56,21.4c5.82,0,10.35-4.54,10.35-10.12,0-5.12-3.72-9.07-9.31-9.07s-10.35,4.54-10.35,10.24c0,5.12,3.72,8.96,9.31,8.96Z"/>
    <path class="cls-4" d="M142.25,87.82l6.86-27.45c3.72-15.35,12.21-22.33,18.26-22.33,3.96,0,5.12,2.09,5.12,5.23,0,1.51-.23,3.37-.7,5.35l-6.63,25.94c-.35,1.4-.47,2.68-.47,3.84,0,6.16,4.19,10.58,11.75,10.58,4.12,0,8.1-1.19,11.91-3.91,1.95,2.44,5.2,3.91,9.61,3.91s8.76-1.39,12.85-4.62c2.12,2.87,5.88,4.62,11.22,4.62,7.74,0,13.52-2.94,18.43-8.59,4.12,5.47,10.83,8.59,19.03,8.59,11.75,0,20.82-5.82,25.82-16.28h-.58c-5.23,6.28-10.7,9.42-17.8,9.42-8.37,0-14.42-4.89-14.42-16.05,0-1.74.12-3.61.35-5.47,21.75-.47,37.57-5.58,37.57-18.49,0-7.44-6.98-12.68-17.68-12.68-20.94,0-36.75,17.68-36.75,36.52,0,5.39,1.4,10.01,3.89,13.66-2.86,2.08-5.87,3.09-8.31,3.09-3.72,0-6.4-1.98-6.4-5.7,0-.58.12-1.28.23-1.98l10.24-41.41h14.54l1.28-3.02h-15.12l5.12-20.12h-.93c-6.4,11.34-15.09,18.45-26.78,21.64l.38-1.52h-23.38v.23c3.14,2.09,4.77,3.95,4.77,7.21,0,1.28-.23,2.68-.81,4.89l-7.91,31.64c-.35,1.4-.58,2.68-.58,3.95,0,1.75.35,3.35,1.01,4.74-.55.09-1.08.14-1.59.14-2.91,0-4.77-1.63-4.77-4.54,0-.7.12-1.4.35-2.21l6.98-27.91c.58-2.33.81-4.65.81-6.63,0-7.21-3.61-12.68-12.21-12.68-10.58,0-19.42,8.37-24.89,19.66l4.54-18.49h-47.92l1.63-7.44c3.26-15.82,6.4-21.29,12.33-21.29,1.34,0,2.42.33,3.24.94-4.03,1.4-6.85,5.15-6.85,9.64,0,5.12,3.72,8.96,9.31,8.96s10.35-4.54,10.35-10.12c0-.17-.01-.34-.02-.51,0-.14.02-.28.02-.43,0-6.51-6.4-10.35-15.82-10.35-14.89,0-24.19,8.26-29.54,25.47l-1.28,4.54-7.79,2.44-.35,1.16h7.33l-10.24,44.43c-.43,1.85-.85,3.61-1.27,5.32-2.64-.17-4.31-1.76-4.31-4.5,0-.7.12-1.4.35-2.21l6.98-27.91c.58-2.33.81-4.65.81-6.63,0-7.21-3.61-12.68-12.21-12.68-10.58,0-19.42,8.37-24.89,19.66l4.54-18.49H4.54v.23c3.14,2.09,4.77,3.95,4.77,7.21,0,1.28-.23,2.68-.81,4.89L.58,74.56c-.35,1.4-.58,2.68-.58,3.95,0,6.16,4.19,10.47,11.75,10.47,2.97,0,5.88-.63,8.7-2l-.21.83h16.4l6.86-27.45c3.72-15.35,12.21-22.33,18.26-22.33,3.96,0,5.12,2.09,5.12,5.23,0,1.51-.23,3.37-.7,5.35l-6.63,25.94c-.35,1.4-.47,2.68-.47,3.84,0,6.16,4.19,10.58,11.75,10.58,2.62,0,5.19-.49,7.7-1.54-3.91,14.89-7.83,23.83-13.86,26.55v.23c15.35-.47,25.47-8.14,30.59-28.85l12.68-51.76h5.46c.99,1.23,1.51,2.61,1.51,4.42,0,1.28-.23,2.68-.81,4.89l-7.91,31.64c-.35,1.4-.58,2.68-.58,3.95,0,6.16,4.19,10.47,11.75,10.47,2.97,0,5.88-.63,8.7-2l-.21.83h16.4ZM272.99,31.52c3.26,0,4.88,2.44,4.88,6.05,0,12.1-9.77,20.24-24.77,21.63,2.33-13.61,11.17-27.68,19.89-27.68ZM202.73,76.65l10.65-43.04h5.87l-10,40.24c-.35,1.28-.46,2.68-.46,3.84,0,1.96.41,3.75,1.19,5.29-.99.26-1.94.41-2.82.41-2.91,0-4.77-1.63-4.77-4.54,0-.7.12-1.4.35-2.21ZM31.4,42.92l-10.06,40.45c-.13,0-.28.03-.41.03-2.91,0-4.77-1.63-4.77-4.54,0-.7.12-1.4.35-2.21l11.28-45.58c2.8,1.99,4.42,3.84,4.42,6.96,0,1.28-.23,2.68-.81,4.89ZM121.78,78.86c0-.7.12-1.4.35-2.21l11.28-45.58c2.8,1.99,4.42,3.84,4.42,6.96,0,1.28-.23,2.68-.81,4.89l-10.06,40.45c-.13,0-.28.03-.41.03-2.91,0-4.77-1.63-4.77-4.54Z"/>
    <path class="cls-4" d="M208.78,21.4c5.82,0,10.35-4.54,10.35-10.12,0-5.12-3.72-9.07-9.3-9.07s-10.35,4.54-10.35,10.24c0,5.12,3.72,8.96,9.31,8.96Z"/>
    <rect class="cls-1" x="279.43" y="29.72" width="72.82" height="30.94" transform="translate(92.14 272.69) rotate(-53.62)"/>
    <circle class="cls-3" cx="344.47" cy="66.76" r="20.17"/>
  </g>
</svg>